<svg xmlns="http://www.w3.org/2000/svg" version="1.1" xmlns:xlink="http://www.w3.org/1999/xlink" xmlns:svgjs="http://svgjs.dev/svgjs" width="128" height="128" viewBox="0 0 128 128"><g transform="matrix(0.8046875,0,0,0.8046875,12.41184074821259,12.814873242367177)"><svg viewBox="0 0 98 98" data-background-color="#ffffff" preserveAspectRatio="xMidYMid meet" height="127" width="128" xmlns="http://www.w3.org/2000/svg" xmlns:xlink="http://www.w3.org/1999/xlink"><g id="tight-bounds" transform="matrix(1,0,0,1,0.08387967645792571,0.08387967645792571)"><svg viewBox="0 0 97.83224064708413 97.83224064708413" height="97.83224064708413" width="97.83224064708413"><g><svg></svg></g><g><svg viewBox="0 0 97.83224064708413 97.83224064708413" height="97.83224064708413" width="97.83224064708413"><g><path d="M0 48.916c0-27.016 21.9-48.916 48.916-48.916 27.016 0 48.916 21.9 48.916 48.916 0 27.016-21.9 48.916-48.916 48.916-27.016 0-48.916-21.9-48.916-48.916zM48.916 93.244c24.481 0 44.328-19.846 44.328-44.328 0-24.481-19.846-44.328-44.328-44.327-24.481 0-44.328 19.846-44.327 44.327 0 24.481 19.846 44.328 44.327 44.328z" data-fill-palette-color="tertiary" fill="#ffffff" stroke="transparent"></path><ellipse rx="46.959475510600384" ry="46.959475510600384" cx="48.91612032354207" cy="48.91612032354207" fill="#ffffff" stroke="transparent" stroke-width="0" fill-opacity="1" data-fill-palette-color="tertiary"></ellipse></g><g transform="matrix(1,0,0,1,26.2456063461785,23.475393915029336)"><svg viewBox="0 0 45.34102795472713 50.88145281702546" height="50.88145281702546" width="45.34102795472713"><g><svg viewBox="0 0 45.34102795472713 50.88145281702546" height="50.88145281702546" width="45.34102795472713"><g><svg viewBox="0 0 45.34102795472713 50.88145281702546" height="50.88145281702546" width="45.34102795472713"><g id="textblocktransform"><svg viewBox="0 0 45.34102795472713 50.88145281702546" height="50.88145281702546" width="45.34102795472713" id="textblock"><g><svg viewBox="0 0 45.34102795472713 50.88145281702546" height="50.88145281702546" width="45.34102795472713"><g><svg viewBox="0 0 45.34102795472713 50.88145281702546" height="50.88145281702546" width="45.34102795472713"><g><svg xmlns="http://www.w3.org/2000/svg" xmlns:xlink="http://www.w3.org/1999/xlink" version="1.1" x="0" y="0" viewBox="9.9 5 80.19999999999999 90" enable-background="new 0 0 100 100" xml:space="preserve" height="50.88145281702546" width="45.34102795472713" class="icon-icon-0" data-fill-palette-color="quaternary" id="icon-0"><g fill="#1e1b4b" data-fill-palette-color="quaternary"><path d="M55.3 30.3C46.1 30.3 38.6 37.8 38.6 47S46.1 63.7 55.3 63.7 72 56.3 72 47.1C72 37.8 64.5 30.3 55.3 30.3M64.6 56.4C64.3 56.7 63.8 56.9 63.4 56.9 62.9 56.9 62.5 56.7 62.2 56.4L54.1 48.3C53.8 48 53.6 47.5 53.6 47.1V38.8C53.6 37.8 54.4 37 55.4 37S57.2 37.8 57.2 38.8V46.3L64.7 53.8C65.3 54.6 65.3 55.7 64.6 56.4" fill="#1e1b4b" data-fill-palette-color="quaternary"></path><path d="M86.4 10.9V84.9C86.4 88.5 83.4 91.5 79.8 91.5H22.2C22.6 93.5 24.3 95 26.4 95H82.9C86.9 95 90.1 91.8 90.1 87.8V15.1C90 13 88.5 11.2 86.4 10.9" fill="#1e1b4b" data-fill-palette-color="quaternary"></path><path d="M11.8 21.7H23.1C24.1 21.7 25 20.9 25 19.8 25 18.8 24.2 17.9 23.1 17.9H11.8C10.8 17.9 9.9 18.7 9.9 19.8 10 20.9 10.8 21.7 11.8 21.7" fill="#1e1b4b" data-fill-palette-color="quaternary"></path><path d="M11.8 39.6H23.1C24.1 39.6 25 38.8 25 37.7 25 36.7 24.2 35.8 23.1 35.8H11.8C10.8 35.8 9.9 36.6 9.9 37.7 10 38.8 10.8 39.6 11.8 39.6" fill="#1e1b4b" data-fill-palette-color="quaternary"></path><path d="M11.8 57.5H23.1C24.1 57.5 25 56.7 25 55.6 25 54.6 24.2 53.7 23.1 53.7H11.8C10.8 53.7 9.9 54.5 9.9 55.6 10 56.7 10.8 57.5 11.8 57.5" fill="#1e1b4b" data-fill-palette-color="quaternary"></path><path d="M25 73.5C25 72.5 24.2 71.6 23.1 71.6H11.8C10.8 71.6 9.9 72.4 9.9 73.5 9.9 74.5 10.7 75.4 11.8 75.4H23.1C24.2 75.4 25 74.6 25 73.5" fill="#1e1b4b" data-fill-palette-color="quaternary"></path><path d="M84.1 84.9V9.3C84.1 7 82.2 5 79.8 5H20.4C18.1 5 16.1 6.9 16.1 9.3V15.7H20C20.1 15.1 20.7 14.6 21.4 14.6H26.8C27.6 14.6 28.2 15.2 28.2 16V24C28.2 24.8 27.6 25.4 26.8 25.4H21.4C20.6 25.4 20 24.8 20 24.1H16.2V33.6H20C20.1 33 20.7 32.5 21.4 32.5H26.8C27.6 32.5 28.2 33.1 28.2 33.9V42.1C28.2 42.9 27.6 43.5 26.8 43.5H21.4C20.6 43.5 20 42.9 20 42.2H16.2V51.7H20C20.1 51.1 20.7 50.6 21.4 50.6H26.8C27.6 50.6 28.2 51.2 28.2 52V60.2C28.2 61 27.6 61.6 26.8 61.6H21.4C20.6 61.6 20 61 20 60.3H16.2V69.8H20C20.1 69.2 20.7 68.7 21.4 68.7H26.8C27.6 68.7 28.2 69.3 28.2 70.1V78.3C28.2 79.1 27.6 79.7 26.8 79.7H21.4C20.6 79.7 20 79.1 20 78.4H16.2V85.5C16.2 87.8 18.1 89.8 20.5 89.8H79.9C82.2 89.1 84.1 87.2 84.1 84.9M55.3 67.3C44.1 67.3 35 58.2 35 47.1 35 35.9 44.1 26.8 55.3 26.8S75.6 35.9 75.6 47.1C75.6 58.2 66.5 67.3 55.3 67.3" fill="#1e1b4b" data-fill-palette-color="quaternary"></path></g></svg></g></svg></g></svg></g></svg></g></svg></g><g></g></svg></g></svg></g></svg></g><defs></defs></svg><rect width="97.83224064708413" height="97.83224064708413" fill="none" stroke="none" visibility="hidden"></rect></g></svg></g></svg>